<svg data-v-423bf9ae="" xmlns="http://www.w3.org/2000/svg" viewBox="0 0 682 90" class="iconLeftSlogan"><!----><!----><!----><g data-v-423bf9ae="" id="6f52ac22-5288-4659-b346-99358d099e0c" fill="black" transform="matrix(6.0126712808575045,0,0,6.0126712808575045,189.64018335769114,-31.987412723142512)"><path d="M9.04 11.34C9.04 10.78 8.97 9.66 8.72 9.52C7.50 9.58 6.29 9.58 5.07 9.63C4.98 9.87 4.84 10.84 4.84 10.93C4.84 11.05 4.89 11.05 4.89 11.09C6.05 11.05 6.97 10.96 7.06 10.96C7.52 10.96 7.57 11.58 7.57 11.87C7.57 11.97 7.56 12.15 7.52 12.22C7.21 12.67 6.36 13.13 6.06 13.23C5.64 13.37 4.79 13.37 4.69 13.37C4.58 13.37 4.02 13.34 3.93 13.27C2.27 11.96 2.02 11.47 2.02 10.19C2.02 9.49 2.20 9.23 2.27 9.06C3.00 7.38 4.41 7.29 5.75 7.29C6.89 7.29 7.24 7.91 7.36 7.91C7.70 7.91 8.02 7.43 8.40 7.10C8.40 6.99 8.39 6.90 8.51 6.82L8.20 6.58C7.13 5.45 6.29 5.36 5.46 5.36C4.54 5.36 2.38 5.75 1.65 7.35C1.46 7.77 0.94 8.13 0.78 8.47C0.55 8.96 0.50 8.92 0.50 9.51C0.50 9.62 0.49 11.02 0.69 11.70C0.85 12.25 1.34 12.71 1.65 13.23C1.75 13.38 1.79 13.64 1.90 13.76C2.09 13.97 2.38 14.07 2.52 14.20C2.93 14.53 3.40 15.05 3.70 15.06C3.99 15.08 4.52 15.08 4.62 15.08C6.22 15.08 6.75 14.84 8.53 13.59C8.68 13.48 8.81 13.22 8.85 13.09C8.95 12.78 9.04 12.36 9.04 11.34ZM14.76 12.36C14.15 12.39 13.34 12.29 12.81 12.32C13.26 11.52 13.31 10.61 13.71 9.72C13.92 10.14 14.13 10.67 14.25 11.09C14.38 11.48 14.57 11.94 14.76 12.36ZM17.65 15.12C16.65 12.84 15.96 10.79 15.26 8.89C15.05 8.34 14.63 7.60 14.49 7.21C14.34 6.80 14.25 6.27 14.08 5.91C14.01 5.75 13.82 5.53 13.71 5.47C13.47 6.03 13.22 6.71 13.02 7.11C12.70 7.78 12.14 8.65 12.03 9.03C11.48 10.77 10.74 13.38 9.87 15.12L11.68 15.12C11.86 14.76 11.82 14.22 12.14 14.03C12.59 13.75 13.64 14 15.43 13.96C15.55 14.34 15.72 14.80 15.93 15.12L17.65 15.12ZM29.54 7.90C29.54 7.29 29.55 6.09 29.34 5.70C29.22 5.63 27.94 5.49 27.86 5.49C27.66 5.49 27.47 5.63 27.40 5.78C26.35 8.09 25.26 10.44 24.26 12.78C24.22 12.82 24.21 12.82 24.16 12.82C23.56 12.25 23.24 10.67 22.92 9.86C22.68 9.24 22.13 8.53 21.94 8.06C21.81 7.73 21.59 7.18 21.35 6.78C21.15 6.47 21.03 5.95 20.83 5.73C20.62 5.50 20.24 5.49 20.15 5.49C20.03 5.49 19.71 5.61 19.47 5.66C19.25 5.70 19.01 5.68 18.83 5.68C18.77 7.24 18.68 8.82 18.52 10.32C18.49 10.64 18.41 11.23 18.41 11.33C18.41 11.44 18.55 12.50 18.55 12.61L18.55 14.29C18.55 14.36 18.68 15.06 18.97 15.15C19.15 15.19 19.54 15.15 19.64 15.15C19.75 15.15 20.17 15.15 20.37 15.09C20.37 14.41 20.41 13.71 20.36 13.06C20.33 12.74 20.27 12.33 20.30 12.07C20.31 11.91 20.43 11.62 20.43 11.52L20.43 9.95C20.43 9.69 20.23 9.17 20.48 9.10C20.58 9.20 20.66 9.30 20.68 9.37C20.85 10.05 21.24 10.86 21.45 11.24C21.56 11.47 21.94 11.72 22.05 11.94C22.83 13.37 22.86 14.28 23.63 15.15L24.77 15.15C25.80 13.79 26.64 10.78 27.78 9.30C27.82 9.34 27.79 9.34 27.79 9.45C27.79 9.56 27.68 10.64 27.72 11.19C27.73 11.40 27.75 11.58 27.73 11.69C27.71 11.86 27.75 12.10 27.75 12.21L27.75 13.79C27.75 14.18 27.55 13.99 27.85 15.09C28.03 15.11 28.29 15.15 28.39 15.15C28.50 15.15 28.70 15.08 28.84 15.04C28.98 14.99 29.16 14.99 29.30 15.01C29.34 14.50 29.40 13.58 29.40 13.45C29.40 13.34 29.36 12.61 29.36 10.56C29.36 9.67 29.54 8.01 29.54 7.90ZM37.17 5.67C36.02 5.60 33.91 5.46 33.80 5.46C33.68 5.46 31.63 5.66 30.59 5.78C30.59 6.19 30.49 6.96 30.49 7.06C30.49 7.17 30.62 11.28 30.66 13.36C30.66 13.79 30.52 14.62 30.55 15.02C30.59 15.06 30.60 15.12 30.67 15.16L37.10 15.16L37.10 14.92C37.10 14.81 36.99 14.70 36.97 14.60C36.95 14.34 36.96 14.03 36.90 13.83C36.74 13.79 36.54 13.73 36.40 13.73C34.43 13.65 33.57 13.73 33.46 13.73C33.38 13.73 32.34 13.65 32.16 13.48C32.54 10.79 31.86 11.03 34.06 11.03C34.17 11.03 35.41 11.21 35.52 11.21L36.86 11.21C37.04 11.09 37.06 10.54 37.06 10.35C37.06 10.23 37.06 9.87 37.00 9.67L37.04 9.62C35.87 9.67 35.03 9.69 34.92 9.69C34.80 9.69 33.73 9.60 33.61 9.60C33.50 9.60 32.56 9.73 32.45 9.73C32.37 9.73 32.12 9.59 32.12 9.42C32.12 9.31 32.20 9.25 32.20 9.17C32.21 8.61 32.21 7.83 32.33 7.27C33.05 7.04 33.18 7.08 33.68 7.08L36.43 7.17C37.46 7.17 37.11 6.97 37.17 5.67ZM43.02 8.67C43.02 8.93 43.05 9.20 42.70 9.55C42.52 9.73 42.08 9.73 41.75 9.76C41.48 9.79 41.05 9.88 40.94 9.88C40.84 9.88 40.18 9.83 39.86 9.69C39.70 9.62 39.66 8.85 39.66 8.54C39.66 8.43 39.76 7.64 39.76 7.24C39.90 7.28 40.14 7.38 40.25 7.38C40.36 7.38 41.19 7.28 41.30 7.28C42.06 7.28 43.02 7.62 43.02 8.67ZM44.59 15.19C44.45 14.53 43.93 14.13 43.57 13.20C43.23 12.36 43.30 11.84 42.76 11.12C43.92 11.05 44.49 9.02 44.49 8.09C44.49 7.97 44.49 7.73 44.48 7.62C44.41 7.04 43.01 5.89 42.38 5.82C41.48 5.71 39.76 5.59 39.66 5.59C39.66 5.59 38.51 5.60 38.33 5.87C38.37 6.17 38.35 6.62 38.33 6.86C38.30 7.45 38.23 8.19 38.23 8.29L38.23 14.69C38.23 14.80 38.33 15.02 38.37 15.16C38.56 15.11 38.63 15.12 38.72 15.12C38.85 15.12 39.38 15.20 39.79 15.25C39.79 14.70 39.89 14.15 39.80 12.14C39.79 11.90 39.69 11.42 39.83 11.31C40.28 11.35 40.84 11.06 41.10 11.37C41.76 12.10 42.70 13.87 42.83 15.05C42.73 15.33 43.54 15.29 43.71 15.29C43.82 15.29 44.41 15.27 44.59 15.19ZM52.00 12.12C52.00 12.01 51.97 11.55 51.88 11.35C51.77 11.07 51.21 10.43 50.86 10.29C50.61 10.19 50.37 10.05 50.16 10.01C49.99 9.97 49.76 10.00 49.67 9.94C49.27 9.67 47.63 9.76 47.63 8.69C47.63 8.23 48.03 7.35 48.85 7.35C49.15 7.35 49.63 7.52 49.85 7.80C50.11 8.12 50.37 8.50 50.53 8.54C50.81 8.62 51.44 8.78 51.53 8.78C51.69 8.78 51.81 8.44 51.81 8.23C51.81 7.34 50.08 5.59 49.18 5.59C48.13 5.59 45.58 6.13 45.58 8.23C45.58 8.74 45.78 10.42 46.63 10.68C46.80 10.72 47.05 10.70 47.14 10.75C48.20 11.37 50.05 10.86 50.05 12.54C50.05 13.09 49.18 13.75 48.57 13.75C47.99 13.75 47.19 13.45 47.29 12.53C47.04 12.33 45.91 11.90 45.85 11.90C45.68 11.90 45.54 12.46 45.54 12.54C45.54 12.92 45.81 13.23 45.89 13.45C46.52 15.01 48.31 15.29 49.63 15.29C49.74 15.29 50.09 15.32 50.22 15.27C51.31 14.87 52.00 13.13 52.00 12.12ZM65.65 7.17C65.65 7.06 65.62 6.31 65.59 5.91C65.58 5.80 65.52 5.63 65.46 5.56C65.28 5.49 65.00 5.49 64.90 5.49C64.78 5.49 64.32 5.54 64.13 5.54C64.08 6.08 64.08 6.64 64.06 7.13C64.05 7.36 63.90 7.80 63.90 7.94C63.90 8.43 63.99 9.23 63.97 9.59C63.94 9.65 63.91 9.63 63.87 9.67C63.46 9.66 62.99 9.69 62.62 9.66C62.03 9.60 60.91 9.45 60.82 9.45C60.72 9.45 60.47 9.49 60.37 9.49C59.79 9.49 59.81 9.44 59.81 8.57C59.81 8.46 59.99 6.80 59.99 6.69L59.99 5.54C59.85 5.50 59.70 5.49 59.58 5.49C58.25 5.49 58.28 5.35 58.28 6.48C58.28 6.59 58.55 9.49 58.55 9.60C58.55 10.92 58.23 13.06 58.23 13.09C58.23 13.20 58.38 13.68 58.44 13.92C58.51 14.24 58.48 14.64 58.46 15.01C58.55 15.09 58.70 15.20 58.80 15.19L59.89 15.19C60.20 14.21 60.06 13.33 59.99 11.44C59.99 11.31 60.02 11.19 60.10 11.13C61.19 11.14 62.96 11.06 63.07 11.06C63.59 11.06 63.94 10.88 63.94 11.65C63.94 11.76 63.71 14.10 63.71 14.21C63.71 14.50 63.70 15.05 63.91 15.15C64.25 15.12 65.03 14.98 65.11 14.98C65.23 14.98 65.24 15.01 65.46 15.01C65.52 13.94 65.34 12.70 65.34 11.80C65.34 11.69 65.65 7.28 65.65 7.17ZM74.23 5.61C73.70 5.60 73.14 5.56 72.49 5.50C72.59 5.84 72.53 6.24 72.59 6.69C72.69 7.46 72.48 8.57 72.48 8.79L72.48 11.62C72.48 12.19 72.10 13.44 71.20 13.50C70.90 13.51 70.32 13.76 70.22 13.76C69.80 13.76 69.45 13.50 69.06 13.22C68.91 13.10 68.64 12.98 68.57 12.84C68.38 12.45 68.33 11.75 68.33 11.63L68.33 9.80C68.33 9.69 68.24 9.37 68.24 9.25C68.24 9.14 68.32 8.78 68.33 8.60C68.42 6.59 68.36 5.96 68.32 5.54C67.56 5.77 67.20 5.54 66.82 5.68C66.77 5.64 66.77 5.59 66.77 5.54C66.71 5.88 66.60 8.57 66.60 8.67C66.60 8.79 66.74 10.19 66.75 10.93C66.78 11.68 66.77 12.45 66.95 13.17C67.00 13.43 67.33 13.72 67.42 13.93C67.94 14.95 69.29 15.20 70.17 15.20C71.43 15.20 70.56 15.33 71.90 14.84C74.63 13.86 74.19 10.77 74.14 8.97C74.12 7.85 74.26 6.61 74.23 5.61ZM79.93 12.11C79.93 13.19 77.83 13.58 77.22 13.58L76.89 13.58C76.83 13.36 76.79 13.02 76.79 12.91C76.79 12.80 76.85 11.89 76.85 11.38C76.85 11.30 76.90 11.19 76.96 11.10C77.17 11.05 77.62 10.99 77.73 10.99C78.05 10.99 79.93 11.12 79.93 12.11ZM80.15 8.20C80.15 9.45 79.13 9.45 78.29 9.45C78.19 9.45 77.55 9.41 77.21 9.41L76.99 9.45C76.89 8.86 76.75 7.76 76.75 7.64C76.75 7.53 76.76 7.24 76.82 7.06C77.25 6.92 78.04 6.82 78.16 6.82C78.85 6.82 80.15 7.21 80.15 8.20ZM81.87 8.89C81.87 8.69 81.79 8.34 81.75 8.16C81.68 7.67 81.87 6.86 81.40 6.47C80.61 5.80 79.94 5.42 79.23 5.42C79.11 5.42 78.64 5.46 78.54 5.46C78.43 5.46 76.68 5.32 76.57 5.32C76.29 5.32 75.38 5.38 75.31 5.53C75.29 6.12 75.21 6.71 75.17 7.25C75.17 7.29 75.21 7.35 75.17 8.85C75.25 9.74 75.39 11.49 75.39 11.61C75.39 12.61 75.14 14.25 75.21 15.04L77.59 15.04C77.70 15.04 78.13 14.90 78.32 14.90C79.94 14.87 81.83 14.25 81.83 12.40C81.83 11.97 81.70 11.17 81.45 10.78C81.24 10.47 80.58 10.42 80.47 10.21C81.58 9.67 81.87 9.59 81.87 8.89Z"></path></g><!----><g data-v-423bf9ae="" id="48f31150-9c5b-4434-926e-66ae50342d09" transform="matrix(1.9585484021196489,0,0,1.9585484021196489,-2.5930880968875982,-39.623989885004704)" stroke="none" fill="black"><path clip-rule="evenodd" d="M58.7 39.4c1.166.033 2.133.45 2.899 1.25.834.8 1.25 1.783 1.25 2.95 0 1.2-.399 2.183-1.199 2.95-.801.834-1.784 1.233-2.95 1.2-1.167.033-2.15-.366-2.95-1.2-.8-.767-1.217-1.75-1.25-2.95 0-1.167.417-2.15 1.25-2.95.767-.8 1.75-1.217 2.95-1.25zm11.05-6.9c.8.833 1.2 1.817 1.2 2.95 0 1.2-.384 2.2-1.15 3-.833.833-1.833 1.216-3 1.15-1.133 0-2.116-.4-2.95-1.2-.767-.8-1.166-1.783-1.199-2.95 0-1.133.399-2.117 1.199-2.95.801-.767 1.784-1.167 2.95-1.2 1.167.033 2.15.433 2.95 1.2zm0 16.25c.8.833 1.2 1.816 1.2 2.95 0 1.2-.384 2.2-1.15 3-.833.8-1.833 1.184-3 1.149-1.133.034-2.116-.35-2.95-1.149-.767-.8-1.149-1.783-1.149-2.95-.033-1.167.35-2.167 1.149-3 .801-.767 1.801-1.15 3-1.15 1.133 0 2.1.383 2.9 1.15zm8.1-8.1c.834.8 1.25 1.783 1.25 2.95 0 1.133-.416 2.1-1.25 2.9-.8.833-1.767 1.25-2.899 1.25-1.167 0-2.15-.417-2.95-1.25-.833-.8-1.25-1.767-1.25-2.9 0-1.167.417-2.15 1.25-2.95.8-.833 1.783-1.25 2.95-1.25 1.132 0 2.099.417 2.899 1.25z"></path><path d="M66.5 66.425c-6.322 0-11.807-2.279-16.302-6.773a33.057 33.057 0 01-1.677-1.876H42.17a28.326 28.326 0 01-1.719 1.875c-4.41 4.488-9.868 6.774-16.202 6.774-6.284 0-11.765-2.275-16.291-6.764-4.408-4.447-6.633-9.894-6.633-16.211 0-6.305 2.218-11.779 6.593-16.271 4.586-4.47 10.061-6.705 16.332-6.705l41.135.05c.887-.082 1.855-.056 2.656.009 5.662.357 10.577 2.583 14.61 6.615 4.524 4.486 6.824 9.974 6.824 16.301 0 6.339-2.307 11.8-6.855 16.231-4.379 4.459-9.819 6.745-16.12 6.745zm-25.95-15.3h9.601c1.067 0 2.069.512 2.694 1.377.6.829 1.307 1.668 2.1 2.491 3.204 3.203 6.998 4.781 11.556 4.781 4.513 0 8.251-1.571 11.428-4.805 3.313-3.229 4.897-6.979 4.897-11.52 0-4.552-1.592-8.343-4.866-11.589-2.887-2.887-6.243-4.417-10.266-4.686H65.546l-41.3-.05c-4.536 0-8.34 1.556-11.626 4.757-3.105 3.189-4.645 6.994-4.645 11.568 0 4.563 1.533 8.327 4.686 11.509 3.262 3.233 7.059 4.815 11.589 4.815 4.546 0 8.301-1.571 11.479-4.805a20.553 20.553 0 002.128-2.469 3.325 3.325 0 012.693-1.374zm-17.6 3.15a3.325 3.325 0 01-3.325-3.325v-3.875H15.7a3.325 3.325 0 010-6.65h3.925V36.55a3.325 3.325 0 016.65 0v3.875h3.875a3.325 3.325 0 010 6.65h-3.875v3.875a3.325 3.325 0 01-3.325 3.325z"></path></g><!----><g data-v-423bf9ae="" id="2a991e9a-b70a-4741-8c7c-2617d9362a53" fill="black" transform="matrix(1.3978616664032153,0,0,1.3978616664032153,190.6051463702677,54.91178438578771)"><path d="M7.76 4.42L2.16 4.42L2.16 7.99L6.59 7.99L6.59 8.65L2.16 8.65L2.16 13.02L1.46 13.02L1.46 3.78L7.76 3.78L7.76 4.42ZM20.06 3.64Q21.36 3.64 22.32 4.22Q23.28 4.80 23.80 5.87Q24.32 6.94 24.32 8.40L24.32 8.40Q24.32 9.86 23.80 10.93Q23.28 12.00 22.32 12.58Q21.36 13.16 20.06 13.16L20.06 13.16Q18.76 13.16 17.80 12.58Q16.84 12.00 16.32 10.93Q15.81 9.86 15.81 8.40L15.81 8.40Q15.81 6.94 16.32 5.87Q16.84 4.80 17.80 4.22Q18.76 3.64 20.06 3.64L20.06 3.64ZM20.06 4.28Q18.98 4.28 18.19 4.78Q17.40 5.28 16.97 6.21Q16.55 7.14 16.55 8.40L16.55 8.40Q16.55 9.66 16.97 10.59Q17.40 11.52 18.19 12.02Q18.98 12.52 20.06 12.52L20.06 12.52Q21.14 12.52 21.94 12.02Q22.74 11.52 23.16 10.59Q23.59 9.66 23.59 8.40L23.59 8.40Q23.59 7.14 23.16 6.21Q22.74 5.28 21.94 4.78Q21.14 4.28 20.06 4.28L20.06 4.28ZM40.59 13.02L39.76 13.02L37.11 9.02L37.07 9.02L34.34 9.02L34.34 13.02L33.64 13.02L33.64 3.78L37.07 3.78Q38.46 3.78 39.28 4.48Q40.10 5.18 40.10 6.40L40.10 6.40Q40.10 7.41 39.51 8.07Q38.92 8.74 37.90 8.93L37.90 8.93L40.59 13.02ZM34.34 4.42L34.34 8.36L37.06 8.36Q38.18 8.36 38.77 7.85Q39.37 7.35 39.37 6.40L39.37 6.40Q39.37 5.45 38.77 4.93Q38.18 4.42 37.06 4.42L37.06 4.42L34.34 4.42ZM66.91 3.78L66.91 4.42L63.53 4.42L63.53 13.02L62.83 13.02L62.83 4.42L59.46 4.42L59.46 3.78L66.91 3.78ZM82.08 3.78L82.78 3.78L82.78 13.02L82.08 13.02L82.08 8.65L76.37 8.65L76.37 13.02L75.67 13.02L75.67 3.78L76.37 3.78L76.37 7.99L82.08 7.99L82.08 3.78ZM93.39 12.38L99.23 12.38L99.23 13.02L92.69 13.02L92.69 3.78L99.01 3.78L99.01 4.42L93.39 4.42L93.39 7.99L97.83 7.99L97.83 8.65L93.39 8.65L93.39 12.38ZM119.64 13.02L119.64 3.78L122.91 3.78Q124.42 3.78 125.17 4.41Q125.92 5.04 125.92 6.23L125.92 6.23Q125.92 7.04 125.48 7.60Q125.03 8.16 124.22 8.33L124.22 8.33L124.22 8.34Q125.12 8.48 125.64 9.07Q126.17 9.66 126.17 10.53L126.17 10.53Q126.17 11.72 125.32 12.37Q124.47 13.02 122.91 13.02L122.91 13.02L119.64 13.02ZM120.34 8.04L122.92 8.04Q125.17 8.04 125.17 6.23L125.17 6.23Q125.17 4.42 122.92 4.42L122.92 4.42L120.34 4.42L120.34 8.04ZM120.34 12.38L123.05 12.38Q124.22 12.38 124.82 11.90Q125.43 11.42 125.43 10.53L125.43 10.53Q125.43 9.62 124.82 9.15Q124.22 8.68 123.05 8.68L123.05 8.68L120.34 8.68L120.34 12.38ZM136.19 12.38L142.03 12.38L142.03 13.02L135.49 13.02L135.49 3.78L141.81 3.78L141.81 4.42L136.19 4.42L136.19 7.99L140.63 7.99L140.63 8.65L136.19 8.65L136.19 12.38ZM153.92 3.64Q156.52 3.64 157.40 5.68L157.40 5.68L156.80 6.17Q156.45 5.18 155.76 4.73Q155.06 4.28 153.93 4.28L153.93 4.28Q153.12 4.28 152.52 4.54Q151.91 4.79 151.60 5.22Q151.28 5.66 151.28 6.20L151.28 6.20Q151.28 6.73 151.55 7.08Q151.82 7.43 152.45 7.68Q153.09 7.92 154.21 8.12L154.21 8.12Q156.02 8.43 156.77 9.02Q157.53 9.60 157.53 10.64L157.53 10.64Q157.53 11.38 157.09 11.96Q156.66 12.53 155.87 12.84Q155.08 13.16 154.06 13.16L154.06 13.16Q152.60 13.16 151.60 12.58Q150.60 12.00 150.23 10.95L150.23 10.95L150.85 10.47Q151.13 11.47 151.98 11.99Q152.82 12.52 154.07 12.52L154.07 12.52Q155.27 12.52 156.04 12.03Q156.80 11.54 156.80 10.68L156.80 10.68Q156.80 9.94 156.18 9.51Q155.55 9.07 154.01 8.81L154.01 8.81Q152.71 8.58 151.96 8.26Q151.20 7.94 150.87 7.46Q150.54 6.99 150.54 6.27L150.54 6.27Q150.54 5.56 150.96 4.96Q151.37 4.35 152.13 4.00Q152.89 3.64 153.92 3.64L153.92 3.64ZM172.61 3.78L172.61 4.42L169.23 4.42L169.23 13.02L168.53 13.02L168.53 4.42L165.16 4.42L165.16 3.78L172.61 3.78ZM195.93 8.50L199.72 8.50L199.72 13.02L199.16 13.02L199.14 11.41Q198.76 12.25 197.95 12.71Q197.15 13.16 195.96 13.16L195.96 13.16Q194.70 13.16 193.75 12.58Q192.81 12.00 192.30 10.92Q191.79 9.84 191.79 8.40L191.79 8.40Q191.79 6.96 192.31 5.88Q192.84 4.80 193.79 4.22Q194.74 3.64 196.00 3.64L196.00 3.64Q197.41 3.64 198.31 4.20Q199.21 4.76 199.65 5.91L199.65 5.91L199.01 6.24Q198.69 5.28 197.93 4.78Q197.16 4.28 196.00 4.28L196.00 4.28Q194.96 4.28 194.18 4.78Q193.40 5.28 192.96 6.21Q192.53 7.14 192.53 8.40L192.53 8.40Q192.53 10.32 193.45 11.42Q194.36 12.52 195.99 12.52L195.99 12.52Q196.99 12.52 197.69 12.12Q198.39 11.72 198.73 11.07Q199.07 10.42 199.07 9.67L199.07 9.67L199.07 9.16L195.93 9.16L195.93 8.50ZM215.49 13.02L214.33 10.12L209.90 10.12L208.75 13.02L208.01 13.02L211.71 3.78L212.53 3.78L216.23 13.02L215.49 13.02ZM210.17 9.48L214.07 9.48L212.46 5.45L212.13 4.47L212.11 4.47L211.78 5.42L210.17 9.48ZM233.55 3.78L233.55 13.02L232.88 13.02L232.88 6.13L232.96 4.45L232.95 4.45L229.57 13.02L228.93 13.02L225.55 4.45L225.54 4.45L225.62 6.13L225.62 13.02L224.95 13.02L224.95 3.78L226.00 3.78L228.79 10.78L229.25 12.19L229.26 12.19L229.71 10.79L232.50 3.78L233.55 3.78ZM244.16 12.38L250.00 12.38L250.00 13.02L243.46 13.02L243.46 3.78L249.77 3.78L249.77 4.42L244.16 4.42L244.16 7.99L248.60 7.99L248.60 8.65L244.16 8.65L244.16 12.38ZM265.97 13.02L265.15 13.02L262.50 9.02L262.46 9.02L259.73 9.02L259.73 13.02L259.03 13.02L259.03 3.78L262.46 3.78Q263.84 3.78 264.66 4.48Q265.48 5.18 265.48 6.40L265.48 6.40Q265.48 7.41 264.89 8.07Q264.31 8.74 263.28 8.93L263.28 8.93L265.97 13.02ZM259.73 4.42L259.73 8.36L262.44 8.36Q263.56 8.36 264.16 7.85Q264.75 7.35 264.75 6.40L264.75 6.40Q264.75 5.45 264.16 4.93Q263.56 4.42 262.44 4.42L262.44 4.42L259.73 4.42ZM277.84 3.64Q280.45 3.64 281.33 5.68L281.33 5.68L280.73 6.17Q280.38 5.18 279.69 4.73Q278.99 4.28 277.86 4.28L277.86 4.28Q277.05 4.28 276.44 4.54Q275.84 4.79 275.53 5.22Q275.21 5.66 275.21 6.20L275.21 6.20Q275.21 6.73 275.48 7.08Q275.74 7.43 276.38 7.68Q277.02 7.92 278.14 8.12L278.14 8.12Q279.94 8.43 280.70 9.02Q281.46 9.60 281.46 10.64L281.46 10.64Q281.46 11.38 281.02 11.96Q280.59 12.53 279.80 12.84Q279.01 13.16 277.98 13.16L277.98 13.16Q276.53 13.16 275.53 12.58Q274.53 12.00 274.16 10.95L274.16 10.95L274.78 10.47Q275.06 11.47 275.91 11.99Q276.75 12.52 278.00 12.52L278.00 12.52Q279.20 12.52 279.97 12.03Q280.73 11.54 280.73 10.68L280.73 10.68Q280.73 9.94 280.11 9.51Q279.48 9.07 277.94 8.81L277.94 8.81Q276.64 8.58 275.88 8.26Q275.13 7.94 274.80 7.46Q274.47 6.99 274.47 6.27L274.47 6.27Q274.47 5.56 274.88 4.96Q275.30 4.35 276.06 4.00Q276.82 3.64 277.84 3.64L277.84 3.64Z"></path></g></svg>